<svg width="379" height="100" viewBox="0 0 379 100" fill="none" xmlns="http://www.w3.org/2000/svg">
<g clip-path="url(#clip0_2821_12416)">
<path opacity="0.6" d="M65.2757 -21.2807C59.6899 -21.2807 54.6887 -20.1689 50.2721 -17.9455C45.9853 -15.7221 42.348 -12.5177 39.3603 -8.33242C36.3725 -4.27793 34.0993 0.692104 32.5404 6.57767C31.1115 12.4632 30.3971 19.0681 30.3971 26.3924C30.3971 36.3324 31.5662 44.8338 33.9044 51.8965C36.3725 58.8284 40.2046 64.1254 45.4007 67.7875C50.5968 71.4496 57.2218 73.2807 65.2757 73.2807C70.9914 73.2807 76.6421 72.6267 82.2279 71.3188C87.9436 70.0109 94.114 68.1799 100.739 65.8256V90.7411C94.6336 93.2262 88.5931 95.0572 82.6176 96.2343C76.6422 97.4115 69.9522 98 62.5478 98C48.2586 98 36.4375 95.0573 27.0846 89.1717C17.8615 83.1553 11.0417 74.7848 6.625 64.06C2.20833 53.2044 0 40.5831 0 26.1962C0 15.6022 1.42892 5.92371 4.28676 -2.83923C7.14461 -11.733 11.3015 -19.3842 16.7574 -25.7929C22.3431 -32.2016 29.163 -37.1717 37.2169 -40.703C45.4007 -44.2343 54.7537 -46 65.2757 -46C72.1605 -46 79.0453 -45.0845 85.9301 -43.2534C92.9448 -41.5531 99.6348 -39.1989 106 -36.1907L96.4522 -12.0599C91.2561 -14.545 85.9951 -16.703 80.6691 -18.5341C75.473 -20.3651 70.3419 -21.2807 65.2757 -21.2807Z" fill="white"/>
<g opacity="0.6">
<path d="M235.066 97.6522L220.15 82.9783C207.459 94.3261 191.954 100 173.636 100C163.561 100 154.664 98.3044 146.944 94.9131C139.355 91.3913 133.467 86.5 129.28 80.2392C125.093 73.8478 123 66.4783 123 58.1304C123 49.1304 125.551 41.0435 130.654 33.8696C135.757 26.6957 143.281 20.8913 153.225 16.4565C149.692 12.1522 147.14 8.04349 145.57 4.13045C144 0.0869675 143.215 -4.21738 143.215 -8.7826C143.215 -15.0435 144.851 -20.6522 148.122 -25.6087C151.393 -30.6957 156.038 -34.6739 162.056 -37.5435C168.206 -40.413 175.337 -41.8478 183.449 -41.8478C191.692 -41.8478 198.758 -40.2826 204.646 -37.1522C210.534 -34.0217 214.917 -29.8478 217.795 -24.6304C220.674 -19.413 221.917 -13.6087 221.524 -7.21739H194.832C194.963 -11.5217 193.917 -14.7826 191.692 -17C189.468 -19.3478 186.458 -20.5217 182.664 -20.5217C179 -20.5217 175.926 -19.413 173.44 -17.1956C171.085 -15.1087 169.907 -12.3696 169.907 -8.97826C169.907 -5.71739 170.888 -2.45652 172.851 0.804348C174.814 3.93479 178.019 7.84783 182.468 12.5435L199.739 29.5652L217.01 46.587C217.272 46.3261 217.468 46.0652 217.599 45.8044C217.73 45.5435 217.861 45.2826 217.992 45.0218L229.179 26.4348H257.833L244.095 50.5C241.478 55.587 238.665 60.413 235.655 64.9783L268.824 97.6522H235.066ZM174.421 77.3044C185.15 77.3044 194.636 73.5217 202.879 65.9565L169.122 32.6957C156.43 38.3044 150.084 46.2609 150.084 56.5652C150.084 62.4348 152.309 67.3913 156.757 71.4348C161.206 75.3479 167.094 77.3044 174.421 77.3044Z" fill="white"/>
<path d="M347.981 -19.3478C342.355 -19.3478 337.317 -18.2391 332.869 -16.0217C328.551 -13.8043 324.887 -10.6087 321.878 -6.43478C318.869 -2.3913 316.579 2.56522 315.009 8.4348C313.569 14.3044 312.85 20.8913 312.85 28.1957C312.85 38.1087 314.027 46.587 316.383 53.6305C318.869 60.5435 322.728 65.8261 327.962 69.4783C333.196 73.1305 339.869 74.9566 347.981 74.9566C353.738 74.9566 359.43 74.3044 365.056 73C370.813 71.6957 377.028 69.8696 383.701 67.5218V92.3696C377.551 94.8478 371.467 96.6739 365.448 97.8478C359.43 99.0218 352.691 99.6087 345.233 99.6087C330.841 99.6087 318.934 96.6739 309.513 90.8044C300.223 84.8044 293.354 76.4565 288.906 65.7609C284.457 54.9348 282.233 42.3478 282.233 28C282.233 17.4348 283.672 7.78262 286.55 -0.956516C289.429 -9.82608 293.616 -17.4565 299.111 -23.8478C304.738 -30.2391 311.607 -35.1956 319.719 -38.7174C327.962 -42.2391 337.383 -44 347.981 -44C354.916 -44 361.85 -43.087 368.785 -41.2609C375.85 -39.5652 382.589 -37.2174 389 -34.2174L379.383 -10.1522C374.149 -12.6304 368.85 -14.7826 363.486 -16.6087C358.252 -18.4348 353.084 -19.3478 347.981 -19.3478Z" fill="white"/>
</g>
</g>
<defs>
<clipPath id="clip0_2821_12416">
<rect width="389" height="100" fill="white"/>
</clipPath>
</defs>
</svg>
