<svg width="371" height="110" viewBox="0 0 371 110" fill="none" xmlns="http://www.w3.org/2000/svg">
<g opacity="0.6" clip-path="url(#clip0_2821_12410)">
<path d="M47.2757 24.7193C41.6899 24.7193 36.6887 25.8311 32.2721 28.0545C27.9853 30.2779 24.348 33.4823 21.3603 37.6676C18.3725 41.7221 16.0993 46.6921 14.5404 52.5777C13.1115 58.4632 12.3971 65.0681 12.3971 72.3924C12.3971 82.3324 13.5662 90.8338 15.9044 97.8965C18.3725 104.828 22.2046 110.125 27.4007 113.787C32.5968 117.45 39.2218 119.281 47.2757 119.281C52.9914 119.281 58.6421 118.627 64.2279 117.319C69.9436 116.011 76.114 114.18 82.739 111.826V136.741C76.6336 139.226 70.5931 141.057 64.6176 142.234C58.6422 143.411 51.9522 144 44.5478 144C30.2586 144 18.4375 141.057 9.08456 135.172C-0.138481 129.155 -6.95833 120.785 -11.375 110.06C-15.7917 99.2044 -18 86.5831 -18 72.1962C-18 61.6022 -16.5711 51.9237 -13.7132 43.1608C-10.8554 34.267 -6.69853 26.6158 -1.24265 20.2071C4.34314 13.7984 11.163 8.82834 19.2169 5.297C27.4007 1.76567 36.7537 0 47.2757 0C54.1605 0 61.0453 0.91553 67.9301 2.74659C74.9448 4.44687 81.6348 6.80109 88 9.80927L78.4522 33.9401C73.2561 31.455 67.9951 29.297 62.6691 27.4659C57.473 25.6349 52.3419 24.7193 47.2757 24.7193Z" fill="white"/>
<path d="M216.645 141.652L201.785 126.978C189.141 138.326 173.695 144 155.446 144C145.409 144 136.545 142.304 128.854 138.913C121.294 135.391 115.428 130.5 111.257 124.239C107.086 117.848 105 110.478 105 102.13C105 93.1304 107.542 85.0435 112.626 77.8696C117.709 70.6957 125.204 64.8913 135.111 60.4565C131.591 56.1522 129.05 52.0435 127.485 48.1304C125.921 44.087 125.139 39.7826 125.139 35.2174C125.139 28.9565 126.769 23.3478 130.027 18.3913C133.286 13.3043 137.914 9.32609 143.91 6.45652C150.036 3.58695 157.14 2.15217 165.222 2.15217C173.434 2.15217 180.473 3.71739 186.339 6.84783C192.205 9.97826 196.571 14.1522 199.439 19.3696C202.307 24.587 203.545 30.3913 203.154 36.7826H176.562C176.693 32.4783 175.65 29.2174 173.434 27C171.218 24.6522 168.22 23.4783 164.44 23.4783C160.79 23.4783 157.727 24.587 155.25 26.8044C152.904 28.8913 151.731 31.6304 151.731 35.0217C151.731 38.2826 152.708 41.5435 154.664 44.8043C156.619 47.9348 159.812 51.8478 164.244 56.5435L181.451 73.5652L198.657 90.587C198.918 90.3261 199.113 90.0652 199.243 89.8044C199.374 89.5435 199.504 89.2826 199.634 89.0218L210.779 70.4348H239.326L225.639 94.5C223.032 99.587 220.23 104.413 217.232 108.978L250.276 141.652H216.645ZM156.228 121.304C166.916 121.304 176.367 117.522 184.579 109.957L150.949 76.6957C138.305 82.3044 131.983 90.2609 131.983 100.565C131.983 106.435 134.199 111.391 138.63 115.435C143.062 119.348 148.928 121.304 156.228 121.304Z" fill="white"/>
<path d="M329.135 24.6522C323.53 24.6522 318.512 25.7609 314.08 27.9783C309.778 30.1957 306.128 33.3913 303.13 37.5652C300.132 41.6087 297.851 46.5652 296.287 52.4348C294.853 58.3044 294.136 64.8913 294.136 72.1957C294.136 82.1087 295.309 90.587 297.656 97.6305C300.132 104.543 303.978 109.826 309.192 113.478C314.406 117.13 321.053 118.957 329.135 118.957C334.871 118.957 340.541 118.304 346.146 117C351.881 115.696 358.073 113.87 364.721 111.522V136.37C358.594 138.848 352.533 140.674 346.537 141.848C340.541 143.022 333.828 143.609 326.398 143.609C312.059 143.609 300.197 140.674 290.812 134.804C281.557 128.804 274.714 120.457 270.282 109.761C265.85 98.9348 263.634 86.3478 263.634 72C263.634 61.4348 265.068 51.7826 267.936 43.0435C270.803 34.1739 274.975 26.5435 280.449 20.1522C286.054 13.7609 292.898 8.80435 300.979 5.28261C309.192 1.76087 318.577 0 329.135 0C336.044 0 342.952 0.913042 349.861 2.73913C356.9 4.43478 363.613 6.78261 370 9.78261L360.419 33.8478C355.205 31.3696 349.926 29.2174 344.582 27.3913C339.368 25.5652 334.219 24.6522 329.135 24.6522Z" fill="white"/>
</g>
<defs>
<clipPath id="clip0_2821_12410">
<rect width="389" height="110" fill="white" transform="translate(-18)"/>
</clipPath>
</defs>
</svg>
