<svg width="52" height="55" viewBox="0 0 52 55" fill="none" xmlns="http://www.w3.org/2000/svg">
<path d="M4 51V14.8261L5.71429 12.5652L35.4286 12L42.2857 12.5652C42.4762 14.2609 42.9714 17.8783 43.4286 18.7826C44 19.913 42.8571 30.6522 43.4286 31.7826C43.8857 32.687 44 37.4348 44 39.6957L41.1429 42.5217H13.1429L4 51Z" fill="#EEC700"/>
<path d="M43 38.6667C43 39.8454 42.5317 40.9759 41.6983 41.8094C40.8648 42.6429 39.7343 43.1111 38.5556 43.1111H11.8889L3 52V16.4444C3 15.2657 3.46825 14.1352 4.30175 13.3017C5.13524 12.4683 6.2657 12 7.44444 12H38.5556C39.7343 12 40.8648 12.4683 41.6983 13.3017C42.5317 14.1352 43 15.2657 43 16.4444V38.6667Z" stroke="#387024" stroke-width="4.43662" stroke-linecap="round" stroke-linejoin="round"/>
<circle cx="41.5" cy="10.5" r="10.5" fill="#B91C1C"/>
<path d="M41.4143 15V6.38571L41.8257 6.82286H39.2929V6H42.34V15H41.4143Z" fill="white"/>
</svg>
