<svg width="51" height="53" viewBox="0 0 51 53" fill="none" xmlns="http://www.w3.org/2000/svg">
<path d="M4 49.6892V14.4428L5.67143 12.2399L34.6429 11.6892L41.3286 12.2399C41.5143 13.8921 41.9971 17.4167 42.4429 18.2979C43 19.3994 41.8857 29.8631 42.4429 30.9646C42.8886 31.8457 43 36.4718 43 38.6747L40.2143 41.4283H12.9143L4 49.6892Z" fill="#87B924"/>
<path d="M42 37.6892C42 38.8385 41.5435 39.9407 40.7308 40.7533C39.9181 41.566 38.8159 42.0225 37.6667 42.0225H11.6667L3 50.6892V16.0225C3 14.8733 3.45655 13.7711 4.2692 12.9584C5.08186 12.1458 6.18406 11.6892 7.33333 11.6892H37.6667C38.8159 11.6892 39.9181 12.1458 40.7308 12.9584C41.5435 13.7711 42 14.8733 42 16.0225V37.6892Z" stroke="#0E5B1D" stroke-width="4.34608" stroke-linecap="round" stroke-linejoin="round"/>
<circle cx="40.5" cy="11.1892" r="10.5" fill="#B91C1C"/>
<path d="M40.4161 14.6892V6.25072L40.8191 6.67895H38.3379V5.87288H41.3229V14.6892H40.4161Z" fill="white"/>
</svg>
