<svg width="24" height="24" viewBox="0 0 24 24" fill="none" xmlns="http://www.w3.org/2000/svg">
<g id="computer-mouse--computer-device-electronics-mouse">
<g id="Group">
<path id="Vector" d="M13.7143 11.1426C13.7143 7.82887 11.028 5.14258 7.71429 5.14258C4.40059 5.14258 1.71429 7.82887 1.71429 11.1426V17.1426C1.71429 20.4563 4.40059 23.1426 7.71429 23.1426C11.028 23.1426 13.7143 20.4563 13.7143 17.1426V11.1426Z" stroke="#384C5E" stroke-linecap="round" stroke-linejoin="round"/>
<path id="Vector_2" d="M1.71429 12H13.7143" stroke="#384C5E" stroke-linecap="round" stroke-linejoin="round"/>
<path id="Vector_3" d="M7.71429 11.9998V4.71408C7.71429 3.6911 8.12067 2.71002 8.84403 1.98666C9.56738 1.26331 10.5485 0.856934 11.5714 0.856934V0.856934C12.5944 0.856934 13.5755 1.26331 14.2988 1.98666C15.0222 2.71002 15.4286 3.6911 15.4286 4.71408V5.14265C15.4286 6.05196 15.7898 6.92403 16.4328 7.56701C17.0758 8.21 17.9478 8.57122 18.8572 8.57122C19.7665 8.57122 20.6385 8.21 21.2815 7.56701C21.9245 6.92403 22.2857 6.05196 22.2857 5.14265V2.57122" stroke="#384C5E" stroke-linecap="round" stroke-linejoin="round"/>
</g>
</g>
</svg>
