<svg width="24" height="24" viewBox="0 0 24 24" fill="none" xmlns="http://www.w3.org/2000/svg">
<g id="ph:facebook-logo-thin">
<path id="Vector" d="M12 2.625C10.1458 2.625 8.33324 3.17483 6.79153 4.20497C5.24982 5.23511 4.04821 6.69929 3.33863 8.41234C2.62906 10.1254 2.44341 12.0104 2.80514 13.829C3.16688 15.6475 4.05976 17.318 5.37088 18.6291C6.682 19.9402 8.35246 20.8331 10.171 21.1949C11.9896 21.5566 13.8746 21.3709 15.5877 20.6614C17.3007 19.9518 18.7649 18.7502 19.795 17.2085C20.8252 15.6668 21.375 13.8542 21.375 12C21.3723 9.51443 20.3837 7.13145 18.6261 5.37389C16.8686 3.61633 14.4856 2.62773 12 2.625ZM12.375 20.6166V13.875H15C15.0995 13.875 15.1948 13.8355 15.2652 13.7652C15.3355 13.6948 15.375 13.5995 15.375 13.5C15.375 13.4005 15.3355 13.3052 15.2652 13.2348C15.1948 13.1645 15.0995 13.125 15 13.125H12.375V10.5C12.375 10.0027 12.5725 9.52581 12.9242 9.17417C13.2758 8.82254 13.7527 8.625 14.25 8.625H15.75C15.8495 8.625 15.9448 8.58549 16.0152 8.51517C16.0855 8.44484 16.125 8.34946 16.125 8.25C16.125 8.15054 16.0855 8.05516 16.0152 7.98483C15.9448 7.91451 15.8495 7.875 15.75 7.875H14.25C13.5538 7.875 12.8861 8.15156 12.3938 8.64384C11.9016 9.13613 11.625 9.80381 11.625 10.5V13.125H9C8.90055 13.125 8.80517 13.1645 8.73484 13.2348C8.66451 13.3052 8.625 13.4005 8.625 13.5C8.625 13.5995 8.66451 13.6948 8.73484 13.7652C8.80517 13.8355 8.90055 13.875 9 13.875H11.625V20.6166C9.37212 20.5185 7.24724 19.5421 5.70555 17.8964C4.16387 16.2507 3.32801 14.0667 3.37704 11.8122C3.42608 9.55769 4.3561 7.41208 5.96788 5.83497C7.57966 4.25787 9.74499 3.37472 12 3.37472C14.255 3.37472 16.4204 4.25787 18.0321 5.83497C19.6439 7.41208 20.5739 9.55769 20.623 11.8122C20.672 14.0667 19.8361 16.2507 18.2945 17.8964C16.7528 19.5421 14.6279 20.5185 12.375 20.6166Z" fill="white"/>
</g>
</svg>
