<svg width="24" height="24" viewBox="0 0 24 24" fill="none" xmlns="http://www.w3.org/2000/svg">
<g id="openmoji:instagram">
<path id="Vector" d="M15.5949 4.20459H8.40492C6.08492 4.20459 4.20459 6.08526 4.20459 8.40526V15.5946C4.20459 17.9146 6.08526 19.7953 8.40526 19.7953H15.5946C17.9146 19.7953 19.7953 17.9146 19.7953 15.5946V8.40526C19.7953 6.08526 17.9149 4.20459 15.5949 4.20459Z" stroke="white" stroke-width="0.666667" stroke-miterlimit="10"/>
<path id="Vector_2" d="M12.0002 15.7632C14.0786 15.7632 15.7635 14.0783 15.7635 11.9999C15.7635 9.92147 14.0786 8.23657 12.0002 8.23657C9.92172 8.23657 8.23682 9.92147 8.23682 11.9999C8.23682 14.0783 9.92172 15.7632 12.0002 15.7632Z" stroke="white" stroke-width="0.666667" stroke-miterlimit="10"/>
<path id="Vector_3" d="M16.5695 8.23669C17.0148 8.23669 17.3758 7.87568 17.3758 7.43036C17.3758 6.98503 17.0148 6.62402 16.5695 6.62402C16.1242 6.62402 15.7632 6.98503 15.7632 7.43036C15.7632 7.87568 16.1242 8.23669 16.5695 8.23669Z" fill="white"/>
</g>
</svg>
