<svg width="24" height="24" viewBox="0 0 24 24" fill="none" xmlns="http://www.w3.org/2000/svg">
<g id="interface-setting-cog--work-loading-cog-gear-settings-machine">
<path id="Vector" d="M8.96569 3.85693L9.70283 1.95408C9.82715 1.6319 10.0459 1.35478 10.3303 1.15901C10.6148 0.963243 10.9518 0.857954 11.2971 0.856934H12.7028C13.0482 0.857954 13.3851 0.963243 13.6696 1.15901C13.9541 1.35478 14.1728 1.6319 14.2971 1.95408L15.0343 3.85693L17.5371 5.29693L19.56 4.98836C19.8968 4.94264 20.2396 4.99809 20.5449 5.14766C20.8501 5.29723 21.104 5.53416 21.2743 5.82836L21.96 7.02836C22.1357 7.32725 22.2166 7.67238 22.1922 8.01823C22.1677 8.36407 22.0389 8.69436 21.8228 8.96551L20.5714 10.5598V13.4398L21.8571 15.0341C22.0732 15.3052 22.202 15.6355 22.2264 15.9814C22.2509 16.3272 22.17 16.6723 21.9943 16.9712L21.3085 18.1712C21.1383 18.4654 20.8844 18.7024 20.5791 18.8519C20.2739 19.0015 19.9311 19.0569 19.5943 19.0112L17.5714 18.7026L15.0685 20.1426L14.3314 22.0455C14.2071 22.3677 13.9884 22.6448 13.7039 22.8406C13.4194 23.0363 13.0824 23.1416 12.7371 23.1426H11.2971C10.9518 23.1416 10.6148 23.0363 10.3303 22.8406C10.0459 22.6448 9.82715 22.3677 9.70283 22.0455L8.96569 20.1426L6.46283 18.7026L4.43998 19.0112C4.10315 19.0569 3.76033 19.0015 3.45509 18.8519C3.14985 18.7024 2.89596 18.4654 2.72569 18.1712L2.03998 16.9712C1.86426 16.6723 1.78331 16.3272 1.80779 15.9814C1.83228 15.6355 1.96105 15.3052 2.17712 15.0341L3.42855 13.4398V10.5598L2.14283 8.96551C1.92677 8.69436 1.79799 8.36407 1.77351 8.01823C1.74902 7.67238 1.82998 7.32725 2.00569 7.02836L2.6914 5.82836C2.86167 5.53416 3.11556 5.29723 3.4208 5.14766C3.72604 4.99809 4.06886 4.94264 4.40569 4.98836L6.42855 5.29693L8.96569 3.85693ZM8.5714 11.9998C8.5714 12.6779 8.77249 13.3408 9.14922 13.9046C9.52596 14.4684 10.0614 14.9079 10.6879 15.1674C11.3144 15.4269 12.0038 15.4948 12.6689 15.3625C13.3339 15.2302 13.9448 14.9037 14.4243 14.4242C14.9038 13.9447 15.2304 13.3337 15.3627 12.6687C15.495 12.0036 15.4271 11.3142 15.1676 10.6877C14.9081 10.0612 14.4686 9.52577 13.9048 9.14904C13.341 8.7723 12.6781 8.57122 12 8.57122C11.0907 8.57122 10.2186 8.93244 9.57561 9.57542C8.93263 10.2184 8.5714 11.0905 8.5714 11.9998V11.9998Z" stroke="#384C5E" stroke-linecap="round" stroke-linejoin="round"/>
</g>
</svg>
