<svg width="24" height="24" viewBox="0 0 24 24" fill="none" xmlns="http://www.w3.org/2000/svg">
<g id="interface-file-clipboard-check--checkmark-edit-task-edition-checklist-check-success-clipboard-form">
<g id="Group">
<path id="Vector" d="M16.2857 2.57129H18.8571C19.3118 2.57129 19.7478 2.7519 20.0693 3.07339C20.3908 3.39488 20.5714 3.83092 20.5714 4.28557V21.4284C20.5714 21.8831 20.3908 22.3191 20.0693 22.6406C19.7478 22.9621 19.3118 23.1427 18.8571 23.1427H5.14284C4.68819 23.1427 4.25215 22.9621 3.93066 22.6406C3.60917 22.3191 3.42856 21.8831 3.42856 21.4284V4.28557C3.42856 3.83092 3.60917 3.39488 3.93066 3.07339C4.25215 2.7519 4.68819 2.57129 5.14284 2.57129H7.71427" stroke="#384C5E" stroke-linecap="round" stroke-linejoin="round"/>
<path id="Vector_2" d="M14.5714 0.856934H9.42855C8.48178 0.856934 7.71426 1.62445 7.71426 2.57122V3.42836C7.71426 4.37514 8.48178 5.14265 9.42855 5.14265H14.5714C15.5182 5.14265 16.2857 4.37514 16.2857 3.42836V2.57122C16.2857 1.62445 15.5182 0.856934 14.5714 0.856934Z" stroke="#384C5E" stroke-linecap="round" stroke-linejoin="round"/>
<path id="Vector_3" d="M7.71426 14.5714L11.1428 17.1428L15.4285 10.2856" stroke="#384C5E" stroke-linecap="round" stroke-linejoin="round"/>
</g>
</g>
</svg>
