<svg width="239" height="26" viewBox="0 0 239 26" fill="none" xmlns="http://www.w3.org/2000/svg">
<g id="&#208;&#161;oach&#38;&#208;&#161;ouch">
<path d="M11.1423 4.94725C10.1888 4.94725 9.33515 5.14226 8.58124 5.53227C7.84951 5.92229 7.22864 6.48438 6.71865 7.21853C6.20865 7.92974 5.82061 8.80155 5.55453 9.83395C5.31061 10.8664 5.18866 12.0249 5.18866 13.3097C5.18866 15.0533 5.38822 16.5446 5.78735 17.7834C6.20865 18.9994 6.86278 19.9285 7.74973 20.5709C8.63668 21.2133 9.76754 21.5345 11.1423 21.5345C12.118 21.5345 13.0825 21.4198 14.036 21.1904C15.0116 20.9609 16.0649 20.6398 17.1957 20.2268V24.5973C16.1536 25.0332 15.1225 25.3544 14.1025 25.5609C13.0825 25.7673 11.9406 25.8706 10.6767 25.8706C8.23755 25.8706 6.21974 25.3544 4.62323 24.322C3.04889 23.2666 1.88477 21.7983 1.13086 19.9171C0.376954 18.0129 0 15.7989 0 13.2753C0 11.417 0.243911 9.71924 0.731734 8.18211C1.21956 6.62203 1.92912 5.27991 2.86041 4.15574C3.81389 3.03157 4.97801 2.15976 6.35278 1.54032C7.74973 0.920881 9.34624 0.61116 11.1423 0.61116C12.3175 0.61116 13.4927 0.771756 14.6679 1.09295C15.8653 1.3912 17.0073 1.80416 18.0938 2.33183L16.464 6.56468C15.5771 6.12877 14.679 5.75023 13.7699 5.42903C12.883 5.10784 12.0071 4.94725 11.1423 4.94725Z" fill="white"/>
<path d="M30.0583 25.8362C28.2844 25.8362 26.6878 25.4347 25.2687 24.6317C23.8496 23.8058 22.7298 22.6472 21.9094 21.156C21.1111 19.6647 20.712 17.944 20.712 15.9939C20.712 14.0439 21.1222 12.3232 21.9427 10.8319C22.7853 9.34069 23.9272 8.19358 25.3685 7.3906C26.8098 6.56468 28.4174 6.15172 30.1913 6.15172C31.9652 6.15172 33.5728 6.56468 35.0141 7.3906C36.4554 8.19358 37.5862 9.34069 38.4067 10.8319C39.2493 12.3232 39.6706 14.0439 39.6706 15.9939C39.6706 17.944 39.2382 19.6647 38.3734 21.156C37.5308 22.6472 36.3778 23.8058 34.9143 24.6317C33.473 25.4347 31.8543 25.8362 30.0583 25.8362ZM30.0583 21.6377C30.9009 21.6377 31.688 21.4313 32.4198 21.0183C33.1737 20.5824 33.7724 19.94 34.2158 19.0912C34.6593 18.2423 34.881 17.2099 34.881 15.9939C34.881 14.1815 34.4154 12.7935 33.4841 11.8299C32.575 10.8434 31.4552 10.3501 30.1248 10.3501C28.7943 10.3501 27.6746 10.8434 26.7655 11.8299C25.8785 12.7935 25.435 14.1815 25.435 15.9939C25.435 17.8064 25.8674 19.2059 26.7322 20.1924C27.6191 21.156 28.7278 21.6377 30.0583 21.6377Z" fill="white"/>
<path d="M42.2215 15.9251C42.2215 13.998 42.5874 12.2888 43.3191 10.7975C44.073 9.30628 45.0819 8.15916 46.3458 7.35619C47.6319 6.55321 49.0621 6.15172 50.6365 6.15172C52.0112 6.15172 53.2086 6.43849 54.2286 7.01205C55.2708 7.58561 56.1023 8.30829 56.7231 9.18009V6.46144H61.4129V25.5265H56.7231V22.739C56.1245 23.6337 55.2929 24.3793 54.2286 24.9758C53.1864 25.5494 51.978 25.8362 50.6032 25.8362C49.051 25.8362 47.6319 25.4232 46.3458 24.5973C45.0819 23.7714 44.073 22.6128 43.3191 21.1215C42.5874 19.6074 42.2215 17.8752 42.2215 15.9251ZM56.7231 15.9939C56.7231 14.8239 56.5014 13.8259 56.0579 13C55.6145 12.1511 55.0158 11.5087 54.2619 11.0728C53.508 10.614 52.6986 10.3846 51.8338 10.3846C50.9691 10.3846 50.1708 10.6025 49.4391 11.0384C48.7073 11.4743 48.1086 12.1167 47.643 12.9656C47.1995 13.7915 46.9778 14.778 46.9778 15.9251C46.9778 17.0722 47.1995 18.0817 47.643 18.9535C48.1086 19.8024 48.7073 20.4562 49.4391 20.9151C50.193 21.3739 50.9912 21.6033 51.8338 21.6033C52.6986 21.6033 53.508 21.3854 54.2619 20.9495C55.0158 20.4906 55.6145 19.8482 56.0579 19.0223C56.5014 18.1735 56.7231 17.164 56.7231 15.9939Z" fill="white"/>
<path d="M65.096 15.9939C65.096 14.0209 65.484 12.3002 66.2601 10.8319C67.0362 9.34069 68.1116 8.19358 69.4864 7.3906C70.8612 6.56468 72.4355 6.15172 74.2094 6.15172C76.4933 6.15172 78.3781 6.74821 79.8637 7.94121C81.3715 9.11127 82.3804 10.7631 82.8904 12.8967H77.8681C77.602 12.0708 77.1474 11.4284 76.5044 10.9696C75.8835 10.4878 75.1074 10.2469 74.1761 10.2469C72.8457 10.2469 71.7925 10.7516 71.0164 11.7611C70.2403 12.7476 69.8523 14.1586 69.8523 15.9939C69.8523 17.8064 70.2403 19.2173 71.0164 20.2268C71.7925 21.2133 72.8457 21.7066 74.1761 21.7066C76.0609 21.7066 77.2916 20.8348 77.8681 19.0912H82.8904C82.3804 21.156 81.3715 22.7963 79.8637 24.0123C78.3559 25.2282 76.4711 25.8362 74.2094 25.8362C72.4355 25.8362 70.8612 25.4347 69.4864 24.6317C68.1116 23.8058 67.0362 22.6587 66.2601 21.1904C65.484 19.6991 65.096 17.967 65.096 15.9939Z" fill="white"/>
<path d="M97.0117 6.18613C98.4086 6.18613 99.6503 6.50732 100.737 7.1497C101.823 7.76915 102.666 8.69831 103.265 9.93719C103.886 11.1531 104.196 12.6214 104.196 14.3421V25.5265H99.5395V14.996C99.5395 13.4818 99.1736 12.3232 98.4419 11.5202C97.7101 10.6943 96.7123 10.2813 95.4484 10.2813C94.1623 10.2813 93.1423 10.6943 92.3884 11.5202C91.6567 12.3232 91.2908 13.4818 91.2908 14.996V25.5265H86.6343V0.0605469H91.2908V8.83596C91.8895 8.01004 92.6878 7.36766 93.6856 6.90881C94.6834 6.42702 95.7921 6.18613 97.0117 6.18613Z" fill="white"/>
<path d="M126.818 25.5265L124.29 22.9454C122.139 24.9414 119.511 25.9394 116.407 25.9394C114.7 25.9394 113.192 25.6412 111.884 25.0447C110.597 24.4252 109.6 23.5649 108.89 22.4637C108.181 21.3395 107.826 20.0433 107.826 18.5749C107.826 16.9919 108.258 15.5695 109.123 14.3077C109.988 13.0459 111.263 12.0249 112.948 11.2449C112.349 10.4878 111.917 9.76512 111.651 9.07685C111.385 8.36564 111.252 7.60855 111.252 6.80557C111.252 5.70434 111.529 4.71782 112.083 3.84602C112.637 2.95127 113.425 2.25153 114.445 1.7468C115.487 1.24207 116.695 0.989707 118.07 0.989707C119.467 0.989707 120.664 1.26501 121.662 1.81563C122.66 2.36624 123.403 3.1004 123.891 4.01809C124.378 4.93578 124.589 5.95671 124.523 7.08088H119.999C120.021 6.32378 119.844 5.75023 119.467 5.36021C119.09 4.94725 118.58 4.74077 117.937 4.74077C117.316 4.74077 116.795 4.93578 116.374 5.3258C115.975 5.69287 115.775 6.17466 115.775 6.77116C115.775 7.34471 115.941 7.91827 116.274 8.49183C116.607 9.04244 117.15 9.73071 117.904 10.5566L123.758 16.5446C123.802 16.4987 123.835 16.4528 123.857 16.4069C123.88 16.361 123.902 16.3151 123.924 16.2693L125.82 13H130.676L128.348 17.2328C127.904 18.1276 127.427 18.9764 126.917 19.7794L132.538 25.5265H126.818ZM116.54 21.9475C118.358 21.9475 119.966 21.2821 121.363 19.9515L115.642 14.1012C113.491 15.0877 112.416 16.4872 112.416 18.2996C112.416 19.332 112.793 20.2039 113.547 20.9151C114.301 21.6033 115.298 21.9475 116.54 21.9475Z" fill="white"/>
<path d="M145.953 4.94725C145 4.94725 144.146 5.14226 143.392 5.53227C142.66 5.92229 142.039 6.48438 141.529 7.21853C141.019 7.92974 140.631 8.80155 140.365 9.83395C140.121 10.8664 139.999 12.0249 139.999 13.3097C139.999 15.0533 140.199 16.5446 140.598 17.7834C141.019 18.9994 141.674 19.9285 142.561 20.5709C143.447 21.2133 144.578 21.5345 145.953 21.5345C146.929 21.5345 147.893 21.4198 148.847 21.1904C149.822 20.9609 150.876 20.6398 152.007 20.2268V24.5973C150.964 25.0332 149.933 25.3544 148.913 25.5609C147.893 25.7673 146.751 25.8706 145.487 25.8706C143.048 25.8706 141.031 25.3544 139.434 24.322C137.86 23.2666 136.696 21.7983 135.942 19.9171C135.188 18.0129 134.811 15.7989 134.811 13.2753C134.811 11.417 135.055 9.71924 135.543 8.18211C136.03 6.62203 136.74 5.27991 137.671 4.15574C138.625 3.03157 139.789 2.15976 141.164 1.54032C142.561 0.920881 144.157 0.61116 145.953 0.61116C147.128 0.61116 148.304 0.771756 149.479 1.09295C150.676 1.3912 151.818 1.80416 152.905 2.33183L151.275 6.56468C150.388 6.12877 149.49 5.75023 148.581 5.42903C147.694 5.10784 146.818 4.94725 145.953 4.94725Z" fill="white"/>
<path d="M164.869 25.8362C163.095 25.8362 161.499 25.4347 160.08 24.6317C158.66 23.8058 157.541 22.6472 156.72 21.156C155.922 19.6647 155.523 17.944 155.523 15.9939C155.523 14.0439 155.933 12.3232 156.753 10.8319C157.596 9.34069 158.738 8.19358 160.179 7.3906C161.621 6.56468 163.228 6.15172 165.002 6.15172C166.776 6.15172 168.384 6.56468 169.825 7.3906C171.266 8.19358 172.397 9.34069 173.217 10.8319C174.06 12.3232 174.481 14.0439 174.481 15.9939C174.481 17.944 174.049 19.6647 173.184 21.156C172.342 22.6472 171.189 23.8058 169.725 24.6317C168.284 25.4347 166.665 25.8362 164.869 25.8362ZM164.869 21.6377C165.712 21.6377 166.499 21.4313 167.231 21.0183C167.984 20.5824 168.583 19.94 169.027 19.0912C169.47 18.2423 169.692 17.2099 169.692 15.9939C169.692 14.1815 169.226 12.7935 168.295 11.8299C167.386 10.8434 166.266 10.3501 164.936 10.3501C163.605 10.3501 162.485 10.8434 161.576 11.8299C160.689 12.7935 160.246 14.1815 160.246 15.9939C160.246 17.8064 160.678 19.2059 161.543 20.1924C162.43 21.156 163.539 21.6377 164.869 21.6377Z" fill="white"/>
<path d="M195.625 6.46144V25.5265H190.935V23.1175C190.337 23.9434 189.549 24.5973 188.574 25.0791C187.62 25.5379 186.578 25.7673 185.447 25.7673C184.006 25.7673 182.731 25.4576 181.622 24.8382C180.514 24.1958 179.638 23.2666 178.995 22.0507C178.374 20.8118 178.063 19.3435 178.063 17.6458V6.46144H182.72V16.9575C182.72 18.4717 183.086 19.6418 183.817 20.4677C184.549 21.2707 185.547 21.6722 186.811 21.6722C188.097 21.6722 189.106 21.2707 189.838 20.4677C190.569 19.6418 190.935 18.4717 190.935 16.9575V6.46144H195.625Z" fill="white"/>
<path d="M199.355 15.9939C199.355 14.0209 199.743 12.3002 200.519 10.8319C201.295 9.34069 202.37 8.19358 203.745 7.3906C205.12 6.56468 206.694 6.15172 208.468 6.15172C210.752 6.15172 212.637 6.74821 214.122 7.94121C215.63 9.11127 216.639 10.7631 217.149 12.8967H212.127C211.861 12.0708 211.406 11.4284 210.763 10.9696C210.142 10.4878 209.366 10.2469 208.435 10.2469C207.104 10.2469 206.051 10.7516 205.275 11.7611C204.499 12.7476 204.111 14.1586 204.111 15.9939C204.111 17.8064 204.499 19.2173 205.275 20.2268C206.051 21.2133 207.104 21.7066 208.435 21.7066C210.32 21.7066 211.55 20.8348 212.127 19.0912H217.149C216.639 21.156 215.63 22.7963 214.122 24.0123C212.615 25.2282 210.73 25.8362 208.468 25.8362C206.694 25.8362 205.12 25.4347 203.745 24.6317C202.37 23.8058 201.295 22.6587 200.519 21.1904C199.743 19.6991 199.355 17.967 199.355 15.9939Z" fill="white"/>
<path d="M231.27 6.18613C232.667 6.18613 233.909 6.50732 234.995 7.1497C236.082 7.76915 236.925 8.69831 237.523 9.93719C238.144 11.1531 238.455 12.6214 238.455 14.3421V25.5265H233.798V14.996C233.798 13.4818 233.432 12.3232 232.7 11.5202C231.969 10.6943 230.971 10.2813 229.707 10.2813C228.421 10.2813 227.401 10.6943 226.647 11.5202C225.915 12.3232 225.549 13.4818 225.549 14.996V25.5265H220.893V0.0605469H225.549V8.83596C226.148 8.01004 226.946 7.36766 227.944 6.90881C228.942 6.42702 230.051 6.18613 231.27 6.18613Z" fill="white"/>
</g>
</svg>
