<svg width="134" height="111" viewBox="0 0 134 111" fill="none" xmlns="http://www.w3.org/2000/svg">
<mask id="mask0_2846_10686" style="mask-type:alpha" maskUnits="userSpaceOnUse" x="0" y="43" width="68" height="68">
<path d="M46.5221 69.105C45.212 68.6198 43.8272 68.3763 42.4329 68.386C37.9238 68.386 34.7393 70.6947 34.7167 74.0087C34.6885 76.4433 36.9797 77.8153 38.7129 78.6288C40.4912 79.4652 41.0858 79.9922 41.0802 80.7398C41.0689 81.8769 39.6598 82.3925 38.3493 82.3925C36.5485 82.3925 35.565 82.1376 34.0516 81.4988L33.4908 81.2324L32.8511 85.0477C33.9474 85.5117 35.9229 85.9098 37.9633 85.9442C42.757 85.9442 45.8908 83.6499 45.9274 80.124C45.9669 78.1791 44.7269 76.7097 42.1172 75.4952C40.5306 74.7075 39.5471 74.1805 39.5471 73.3814C39.5471 72.6739 40.3897 71.9177 42.1511 71.9177C43.3233 71.8889 44.4883 72.1124 45.5695 72.5736L45.9922 72.7655L46.632 69.0792L46.5221 69.105ZM58.2231 68.6954H54.7004C53.6041 68.6954 52.7784 69.0018 52.2993 70.1075L45.5244 85.7065H50.3181L51.2763 83.1487L57.1269 83.1544C57.2649 83.753 57.6877 85.7065 57.6877 85.7065H61.9149L58.2231 68.6954ZM28.2321 68.5522H32.8004L29.9427 85.5719H25.3801L28.2321 68.5464V68.5522ZM16.6353 77.9328L17.1088 80.2958L21.5728 68.6954H26.4116L19.2224 85.6836H14.3949L10.4494 71.299C10.3855 71.0618 10.2354 70.8581 10.0295 70.729C8.60746 69.9824 7.1007 69.4158 5.54297 69.0419L5.60497 68.6839H12.9576C13.9552 68.724 14.7584 69.0419 15.0261 70.1247L16.6325 77.9413L16.6353 77.9328ZM52.5868 79.6685L54.4073 74.908C54.3848 74.9596 54.7821 73.9256 55.0132 73.2868L55.326 74.7562L56.3829 79.6657H52.584L52.5868 79.6685Z" fill="black"/>
</mask>
<g mask="url(#mask0_2846_10686)">
<rect x="-2.77344" y="43.4336" width="70.2339" height="63.765" fill="#1434CB"/>
</g>
<g clip-path="url(#clip0_2846_10686)">
<path d="M9.24202 11.0929C8.85159 11.0934 8.46116 11.096 8.07076 11.1007C7.68378 11.1136 7.28906 11.1343 6.90466 11.2041C6.32373 11.2961 5.77289 11.5251 5.29747 11.8722C4.82205 12.2193 4.43563 12.6746 4.17001 13.2007C3.98942 13.5576 3.8759 13.9196 3.80883 14.3127C3.73659 14.6955 3.71337 15.0886 3.70563 15.4765C3.70035 15.6567 3.69691 15.8369 3.69531 16.0171L3.69531 45.9059C3.69531 46.0869 3.70047 46.2628 3.70305 46.4412C3.71337 46.8292 3.73659 47.2249 3.80625 47.6102C3.8759 47.9981 3.992 48.3628 4.17259 48.7197C4.52834 49.4218 5.09751 49.9924 5.7979 50.349C6.15392 50.53 6.5151 50.6464 6.90724 50.7163C7.28906 50.7861 7.6812 50.8094 8.06818 50.8197L8.60479 50.8275H60.7026L61.2366 50.8197C61.6236 50.8094 62.0183 50.7861 62.4027 50.7163C62.7897 50.6464 63.1534 50.5326 63.5069 50.3516C64.2091 49.9953 64.7794 49.4236 65.1348 48.7197C65.3154 48.3628 65.4315 48.0007 65.4985 47.6076C65.5682 47.2249 65.5914 46.8318 65.6017 46.4438C65.6069 46.2628 65.6095 46.0869 65.6095 45.9059L65.6121 45.2697V16.0145C65.6121 15.8334 65.6069 15.6576 65.6017 15.4791C65.5969 15.0874 65.5624 14.6966 65.4985 14.3102C65.3751 13.5313 65.0092 12.8116 64.4532 12.2537C63.8972 11.6959 63.1795 11.3285 62.4027 11.2041C62.0171 11.1404 61.6273 11.1058 61.2366 11.1007C60.8471 11.0896 60.4575 11.087 60.0679 11.0929H9.24202ZM9.24202 12.417H60.6897C60.8599 12.417 61.0276 12.4222 61.1979 12.4248C61.4946 12.4352 61.8429 12.4507 62.1654 12.5076C62.4466 12.5593 62.6813 12.6369 62.9058 12.7507C63.3583 12.981 63.7261 13.3496 63.9558 13.8033C64.074 14.0377 64.1558 14.2889 64.1983 14.5481C64.255 14.8662 64.2705 15.2153 64.2783 15.5153C64.2834 15.6834 64.286 15.8515 64.286 16.0248V45.9007C64.286 46.0688 64.286 46.2369 64.2783 46.4076C64.2705 46.705 64.255 47.0542 64.1957 47.3775C64.1399 47.758 63.9936 48.1195 63.769 48.4315C63.5445 48.7434 63.2484 48.9966 62.9058 49.1697C62.6734 49.2875 62.4247 49.3695 62.1679 49.4128C61.8496 49.4636 61.528 49.4912 61.2056 49.4956L60.6897 49.5033H8.61253C8.44226 49.5033 8.26941 49.4981 8.10688 49.4956C7.78283 49.4914 7.45951 49.4637 7.13943 49.4128C6.85823 49.3611 6.62346 49.2835 6.39643 49.1697C5.94388 48.9403 5.57673 48.5713 5.34901 48.1171C5.23113 47.8825 5.14936 47.6314 5.1065 47.3723C5.05526 47.0532 5.02767 46.7308 5.02394 46.4076C5.02048 46.2378 5.01876 46.068 5.01878 45.8981V16.0222C5.01878 15.8541 5.01878 15.6834 5.02394 15.5127C5.03426 15.2179 5.04974 14.8714 5.1065 14.5429C5.1581 14.2636 5.23549 14.0283 5.34901 13.8007C5.57888 13.3478 5.94664 12.98 6.39901 12.7507C6.63256 12.6336 6.88205 12.5517 7.13943 12.5076C7.46191 12.4507 7.8102 12.4326 8.10688 12.4248C8.27457 12.4196 8.44484 12.4196 8.61253 12.417H9.24202ZM21.3932 21.986C20.6192 22.0274 19.6698 22.5007 19.1229 23.1653C18.6301 23.7343 18.1941 24.6653 18.3077 25.5395C19.1797 25.6171 20.0491 25.1024 20.5986 24.4584C21.1275 23.7912 21.4886 22.899 21.3932 21.9886V21.986ZM27.0869 23.0722V37.2783H29.285V32.424H32.3292C35.1103 32.424 37.0633 30.5128 37.0633 27.7378C37.0633 24.9705 35.149 23.0697 32.3989 23.0697L27.0869 23.0722ZM29.285 24.9317H31.8184C33.7249 24.9317 34.8136 25.9559 34.8136 27.7481C34.8136 29.5378 33.7249 30.5723 31.8107 30.5723H29.285V24.9317ZM21.1481 25.7076C19.9872 25.7335 19.0068 26.4317 18.4392 26.4317C17.833 26.4317 16.9094 25.749 15.9084 25.7671C15.2573 25.7834 14.6217 25.9703 14.065 26.3092C13.5083 26.6481 13.0498 27.1273 12.7352 27.699C11.3756 30.0473 12.3766 33.5309 13.7 35.4447C14.3424 36.3912 15.1164 37.4335 16.1354 37.3947C17.0977 37.3585 17.4769 36.7688 18.6456 36.7688C19.8169 36.7688 20.1574 37.3947 21.1739 37.3766C22.2316 37.3585 22.8947 36.43 23.5345 35.4809C24.2723 34.4024 24.5742 33.3602 24.5922 33.3059C24.5742 33.2852 22.5541 32.5093 22.5361 30.1791C22.5154 28.2291 24.1227 27.3007 24.1975 27.2438C23.2894 25.899 21.8756 25.749 21.3854 25.7102C21.3064 25.7052 21.2272 25.7061 21.1481 25.7076ZM42.3133 26.7343C39.7592 26.7343 38.17 28.1128 38.0514 29.9826H40.0559C40.2417 29.0567 41.0079 28.4671 42.2359 28.4671C43.531 28.4671 44.3075 29.155 44.3075 30.3059V31.105L41.4774 31.2705C39.024 31.4102 37.6386 32.5223 37.6386 34.3326C37.6386 36.1947 39.0524 37.4542 41.075 37.4542C42.432 37.4542 43.7374 36.7274 44.3359 35.574H44.3849V37.2783H46.4179V30.1404C46.4179 28.0636 44.8183 26.7343 42.3133 26.7343ZM47.3182 26.9205L51.0487 37.2886C51.0487 37.2964 50.8604 37.9093 50.8604 37.9274C50.5379 38.9878 50.009 39.4042 49.0261 39.4042C48.8481 39.4042 48.4947 39.4042 48.3373 39.3654V41.0878C48.4921 41.1162 49.0261 41.1369 49.2015 41.1369C51.3428 41.1369 52.3645 40.33 53.2468 37.8188L57.1166 26.9205H54.8772L52.2664 35.349H52.2277L49.6143 26.9179L47.3182 26.9205ZM44.3075 32.5817V33.399C44.3075 34.7464 43.1466 35.7705 41.6658 35.7705C40.5255 35.7705 39.7799 35.1809 39.7799 34.2731C39.7799 33.3886 40.4971 32.8248 41.7638 32.7395L44.3075 32.5817Z" fill="#E5E7EB"/>
</g>
<g clip-path="url(#clip1_2846_10686)">
<path d="M95.646 89.6406C103.047 89.6406 109.046 83.6413 109.046 76.2407C109.046 68.8402 103.047 62.8408 95.646 62.8408C88.2454 62.8408 82.2461 68.8402 82.2461 76.2407C82.2461 83.6413 88.2454 89.6406 95.646 89.6406Z" fill="#EA001B"/>
<path d="M115.052 89.6406C122.453 89.6406 128.452 83.6413 128.452 76.2407C128.452 68.8402 122.453 62.8408 115.052 62.8408C107.652 62.8408 101.652 68.8402 101.652 76.2407C101.652 83.6413 107.652 89.6406 115.052 89.6406Z" fill="#FFA200" fill-opacity="0.8"/>
</g>
<g clip-path="url(#clip2_2846_10686)">
<path d="M103.8 30.6954V37.4702H101.684V20.7355H107.295C108.649 20.7063 109.957 21.2282 110.929 22.1842C111.913 23.0841 112.467 24.3717 112.445 25.7155C112.474 27.069 111.92 28.3664 110.929 29.2687C109.947 30.2198 108.735 30.6954 107.295 30.693L103.8 30.6954ZM103.8 22.7963V28.6395H107.348C108.135 28.6639 108.893 28.3493 109.441 27.7738C110.552 26.6763 110.578 24.8692 109.496 23.7401C109.477 23.7206 109.46 23.7011 109.441 23.684C108.901 23.0963 108.137 22.7743 107.348 22.7963H103.8ZM117.322 25.6472C118.887 25.6472 120.121 26.0715 121.025 26.9202C121.93 27.7689 122.382 28.9346 122.382 30.4125V37.4702H120.358V35.8802H120.267C119.391 37.1898 118.225 37.8434 116.77 37.8434C115.529 37.8434 114.49 37.4702 113.655 36.7215C112.844 36.0265 112.383 34.9973 112.402 33.917C112.402 32.7317 112.844 31.7904 113.725 31.0905C114.605 30.3905 115.781 30.0394 117.255 30.0394C118.51 30.0394 119.547 30.2735 120.358 30.7393V30.2467C120.363 29.5102 120.041 28.8127 119.485 28.3444C118.925 27.8323 118.196 27.5518 117.442 27.5616C116.261 27.5616 115.325 28.0689 114.637 29.0809L112.774 27.8884C113.797 26.3934 115.313 25.6472 117.322 25.6472ZM114.584 33.9658C114.581 34.5218 114.843 35.0437 115.285 35.368C115.753 35.7412 116.333 35.9411 116.929 35.9289C117.821 35.9265 118.678 35.5656 119.309 34.9242C120.01 34.2535 120.361 33.4682 120.361 32.5635C119.701 32.0294 118.781 31.7611 117.601 31.7611C116.741 31.7611 116.024 31.9709 115.45 32.3928C114.872 32.822 114.584 33.3414 114.584 33.9658ZM133.998 26.0203L126.934 42.5184H124.75L127.371 36.7459L122.725 26.0203H125.024L128.382 34.2462H128.427L131.694 26.0203H133.998Z" fill="#E5E7EB"/>
<path d="M95.2526 29.2313C95.2526 28.5752 95.1998 27.9217 95.0894 27.2754H86.166V30.9774H91.2757C91.0645 32.1724 90.3829 33.2284 89.3869 33.899V36.3036H92.4373C94.2229 34.6331 95.2526 32.1578 95.2526 29.2313Z" fill="#4285F4"/>
<path d="M86.1619 38.6282C88.7156 38.6282 90.866 37.7771 92.4332 36.3066L89.3828 33.902C88.5332 34.4872 87.4411 34.8214 86.1619 34.8214C83.6947 34.8214 81.5994 33.1313 80.8506 30.8535H77.709V33.3313C79.3146 36.5797 82.5859 38.6282 86.1619 38.6282Z" fill="#34A853"/>
<path d="M80.8528 30.8541C80.4568 29.6616 80.4568 28.3666 80.8528 27.1741V24.6963H77.7111C76.3671 27.4131 76.3671 30.6151 77.7111 33.3319L80.8528 30.8541Z" fill="#FBBC04"/>
<path d="M86.1619 23.2059C87.5107 23.184 88.814 23.701 89.7908 24.6472L92.4932 21.9036C90.7796 20.2697 88.5116 19.3722 86.1619 19.399C82.5859 19.399 79.3146 21.45 77.709 24.696L80.8506 27.1738C81.5994 24.896 83.6947 23.2059 86.1619 23.2059Z" fill="#EA4335"/>
</g>
<defs>
<clipPath id="clip0_2846_10686">
<rect width="61.9167" height="61.9167" fill="white" transform="translate(3.69531)"/>
</clipPath>
<clipPath id="clip1_2846_10686">
<rect width="46.2065" height="46.2065" fill="white" transform="translate(82.248 53.5996)"/>
</clipPath>
<clipPath id="clip2_2846_10686">
<rect width="57.2961" height="58.2202" fill="white" transform="translate(76.7031 1.84863)"/>
</clipPath>
</defs>
</svg>
