<svg width="134" height="111" viewBox="0 0 134 111" fill="none" xmlns="http://www.w3.org/2000/svg">
<mask id="mask0_2846_10868" style="mask-type:alpha" maskUnits="userSpaceOnUse" x="0" y="43" width="68" height="68">
<path d="M46.5221 69.105C45.212 68.6198 43.8272 68.3763 42.4329 68.386C37.9238 68.386 34.7393 70.6947 34.7167 74.0087C34.6885 76.4433 36.9797 77.8153 38.7129 78.6288C40.4912 79.4652 41.0858 79.9922 41.0802 80.7398C41.0689 81.8769 39.6598 82.3925 38.3493 82.3925C36.5485 82.3925 35.565 82.1376 34.0516 81.4988L33.4908 81.2324L32.8511 85.0477C33.9474 85.5117 35.9229 85.9098 37.9633 85.9442C42.757 85.9442 45.8908 83.6499 45.9274 80.124C45.9669 78.1791 44.7269 76.7097 42.1172 75.4952C40.5306 74.7075 39.5471 74.1805 39.5471 73.3814C39.5471 72.6739 40.3897 71.9177 42.1511 71.9177C43.3233 71.8889 44.4883 72.1124 45.5695 72.5736L45.9922 72.7655L46.632 69.0792L46.5221 69.105ZM58.2231 68.6954H54.7004C53.6041 68.6954 52.7784 69.0018 52.2993 70.1075L45.5244 85.7065H50.3181L51.2763 83.1487L57.1269 83.1544C57.2649 83.753 57.6877 85.7065 57.6877 85.7065H61.9149L58.2231 68.6954ZM28.2321 68.5522H32.8004L29.9427 85.5719H25.3801L28.2321 68.5464V68.5522ZM16.6353 77.9328L17.1088 80.2958L21.5728 68.6954H26.4116L19.2224 85.6836H14.3949L10.4494 71.299C10.3855 71.0618 10.2354 70.8581 10.0295 70.729C8.60746 69.9824 7.1007 69.4158 5.54297 69.0419L5.60497 68.6839H12.9576C13.9552 68.724 14.7584 69.0419 15.0261 70.1247L16.6325 77.9413L16.6353 77.9328ZM52.5868 79.6685L54.4073 74.908C54.3848 74.9596 54.7821 73.9256 55.0132 73.2868L55.326 74.7562L56.3829 79.6657H52.584L52.5868 79.6685Z" fill="black"/>
</mask>
<g mask="url(#mask0_2846_10868)">
<rect x="-2.77344" y="43.4338" width="70.2339" height="63.765" fill="#1434CB"/>
</g>
<g clip-path="url(#clip0_2846_10868)">
<path d="M9.24202 11.0927C8.85159 11.0932 8.46116 11.0958 8.07076 11.1005C7.68378 11.1134 7.28906 11.1341 6.90466 11.2039C6.32373 11.296 5.77289 11.5249 5.29747 11.8721C4.82205 12.2192 4.43563 12.6745 4.17001 13.2005C3.98942 13.5574 3.8759 13.9195 3.80883 14.3126C3.73659 14.6953 3.71337 15.0884 3.70563 15.4764C3.70035 15.6565 3.69691 15.8367 3.69531 16.0169L3.69531 45.9057C3.69531 46.0868 3.70047 46.2626 3.70305 46.4411C3.71337 46.829 3.73659 47.2247 3.80625 47.61C3.8759 47.998 3.992 48.3626 4.17259 48.7195C4.52834 49.4216 5.09751 49.9922 5.7979 50.3488C6.15392 50.5299 6.5151 50.6462 6.90724 50.7161C7.28906 50.7859 7.6812 50.8092 8.06818 50.8195L8.60479 50.8273H60.7026L61.2366 50.8195C61.6236 50.8092 62.0183 50.7859 62.4027 50.7161C62.7897 50.6462 63.1534 50.5325 63.5069 50.3514C64.2091 49.9952 64.7794 49.4234 65.1348 48.7195C65.3154 48.3626 65.4315 48.0006 65.4985 47.6074C65.5682 47.2247 65.5914 46.8316 65.6017 46.4436C65.6069 46.2626 65.6095 46.0868 65.6095 45.9057L65.6121 45.2695V16.0143C65.6121 15.8333 65.6069 15.6574 65.6017 15.4789C65.5969 15.0872 65.5624 14.6965 65.4985 14.31C65.3751 13.5312 65.0092 12.8114 64.4532 12.2535C63.8972 11.6957 63.1795 11.3283 62.4027 11.2039C62.0171 11.1402 61.6273 11.1056 61.2366 11.1005C60.8471 11.0894 60.4575 11.0868 60.0679 11.0927H9.24202ZM9.24202 12.4169H60.6897C60.8599 12.4169 61.0276 12.422 61.1979 12.4246C61.4946 12.435 61.8429 12.4505 62.1654 12.5074C62.4466 12.5591 62.6813 12.6367 62.9058 12.7505C63.3583 12.9808 63.7261 13.3494 63.9558 13.8031C64.074 14.0375 64.1558 14.2887 64.1983 14.5479C64.255 14.866 64.2705 15.2151 64.2783 15.5151C64.2834 15.6832 64.286 15.8514 64.286 16.0246V45.9005C64.286 46.0687 64.286 46.2368 64.2783 46.4074C64.2705 46.7049 64.255 47.054 64.1957 47.3773C64.1399 47.7578 63.9936 48.1193 63.769 48.4313C63.5445 48.7432 63.2484 48.9964 62.9058 49.1695C62.6734 49.2873 62.4247 49.3693 62.1679 49.4126C61.8496 49.4634 61.528 49.491 61.2056 49.4954L60.6897 49.5031H8.61253C8.44226 49.5031 8.26941 49.498 8.10688 49.4954C7.78283 49.4912 7.45951 49.4635 7.13943 49.4126C6.85823 49.3609 6.62346 49.2833 6.39643 49.1695C5.94388 48.9401 5.57673 48.5712 5.34901 48.1169C5.23113 47.8824 5.14936 47.6312 5.1065 47.3721C5.05526 47.053 5.02767 46.7306 5.02394 46.4074C5.02048 46.2376 5.01876 46.0678 5.01878 45.898V16.022C5.01878 15.8539 5.01878 15.6832 5.02394 15.5126C5.03426 15.2177 5.04974 14.8712 5.1065 14.5427C5.1581 14.2634 5.23549 14.0281 5.34901 13.8005C5.57888 13.3476 5.94664 12.9798 6.39901 12.7505C6.63256 12.6334 6.88205 12.5515 7.13943 12.5074C7.46191 12.4505 7.8102 12.4324 8.10688 12.4246C8.27457 12.4195 8.44484 12.4195 8.61253 12.4169H9.24202ZM21.3932 21.9858C20.6192 22.0272 19.6698 22.5005 19.1229 23.1652C18.6301 23.7341 18.1941 24.6652 18.3077 25.5393C19.1797 25.6169 20.0491 25.1022 20.5986 24.4583C21.1275 23.791 21.4886 22.8988 21.3932 21.9884V21.9858ZM27.0869 23.0721V37.2781H29.285V32.4238H32.3292C35.1103 32.4238 37.0633 30.5126 37.0633 27.7376C37.0633 24.9703 35.149 23.0695 32.3989 23.0695L27.0869 23.0721ZM29.285 24.9315H31.8184C33.7249 24.9315 34.8136 25.9557 34.8136 27.7479C34.8136 29.5376 33.7249 30.5721 31.8107 30.5721H29.285V24.9315ZM21.1481 25.7074C19.9872 25.7333 19.0068 26.4315 18.4392 26.4315C17.833 26.4315 16.9094 25.7488 15.9084 25.7669C15.2573 25.7832 14.6217 25.9701 14.065 26.309C13.5083 26.648 13.0498 27.1271 12.7352 27.6988C11.3756 30.0471 12.3766 33.5307 13.7 35.4445C14.3424 36.391 15.1164 37.4333 16.1354 37.3945C17.0977 37.3583 17.4769 36.7686 18.6456 36.7686C19.8169 36.7686 20.1574 37.3945 21.1739 37.3764C22.2316 37.3583 22.8947 36.4298 23.5345 35.4807C24.2723 34.4023 24.5742 33.36 24.5922 33.3057C24.5742 33.285 22.5541 32.5091 22.5361 30.179C22.5154 28.229 24.1227 27.3005 24.1975 27.2436C23.2894 25.8988 21.8756 25.7488 21.3854 25.71C21.3064 25.705 21.2272 25.7059 21.1481 25.7074ZM42.3133 26.7341C39.7592 26.7341 38.17 28.1126 38.0514 29.9824H40.0559C40.2417 29.0565 41.0079 28.4669 42.2359 28.4669C43.531 28.4669 44.3075 29.1548 44.3075 30.3057V31.1048L41.4774 31.2703C39.024 31.41 37.6386 32.5221 37.6386 34.3324C37.6386 36.1945 39.0524 37.454 41.075 37.454C42.432 37.454 43.7374 36.7273 44.3359 35.5738H44.3849V37.2781H46.4179V30.1402C46.4179 28.0634 44.8183 26.7341 42.3133 26.7341ZM47.3182 26.9203L51.0487 37.2885C51.0487 37.2962 50.8604 37.9092 50.8604 37.9273C50.5379 38.9876 50.009 39.404 49.0261 39.404C48.8481 39.404 48.4947 39.404 48.3373 39.3652V41.0876C48.4921 41.1161 49.0261 41.1367 49.2015 41.1367C51.3428 41.1367 52.3645 40.3298 53.2468 37.8186L57.1166 26.9203H54.8772L52.2664 35.3488H52.2277L49.6143 26.9178L47.3182 26.9203ZM44.3075 32.5816V33.3988C44.3075 34.7462 43.1466 35.7704 41.6658 35.7704C40.5255 35.7704 39.7799 35.1807 39.7799 34.2729C39.7799 33.3885 40.4971 32.8247 41.7638 32.7393L44.3075 32.5816Z" fill="black"/>
</g>
<g clip-path="url(#clip1_2846_10868)">
<path d="M95.646 89.6407C103.047 89.6407 109.046 83.6413 109.046 76.2408C109.046 68.8402 103.047 62.8409 95.646 62.8409C88.2454 62.8409 82.2461 68.8402 82.2461 76.2408C82.2461 83.6413 88.2454 89.6407 95.646 89.6407Z" fill="#EA001B"/>
<path d="M115.052 89.6407C122.453 89.6407 128.452 83.6413 128.452 76.2408C128.452 68.8402 122.453 62.8409 115.052 62.8409C107.652 62.8409 101.652 68.8402 101.652 76.2408C101.652 83.6413 107.652 89.6407 115.052 89.6407Z" fill="#FFA200" fill-opacity="0.8"/>
</g>
<g clip-path="url(#clip2_2846_10868)">
<path d="M103.8 30.6955V37.4704H101.684V20.7357H107.295C108.649 20.7064 109.957 21.2283 110.929 22.1843C111.913 23.0842 112.467 24.3718 112.445 25.7156C112.474 27.0691 111.92 28.3665 110.929 29.2688C109.947 30.22 108.735 30.6955 107.295 30.6931L103.8 30.6955ZM103.8 22.7964V28.6396H107.348C108.135 28.664 108.893 28.3494 109.441 27.7739C110.552 26.6765 110.578 24.8693 109.496 23.7402C109.477 23.7207 109.46 23.7012 109.441 23.6841C108.901 23.0964 108.137 22.7745 107.348 22.7964H103.8ZM117.322 25.6473C118.887 25.6473 120.121 26.0716 121.025 26.9203C121.93 27.769 122.382 28.9347 122.382 30.4126V37.4704H120.358V35.8803H120.267C119.391 37.1899 118.225 37.8435 116.77 37.8435C115.529 37.8435 114.49 37.4704 113.655 36.7217C112.844 36.0266 112.383 34.9975 112.402 33.9171C112.402 32.7319 112.844 31.7905 113.725 31.0906C114.605 30.3907 115.781 30.0395 117.255 30.0395C118.51 30.0395 119.547 30.2736 120.358 30.7394V30.2468C120.363 29.5103 120.041 28.8128 119.485 28.3446C118.925 27.8324 118.196 27.552 117.442 27.5617C116.261 27.5617 115.325 28.069 114.637 29.0811L112.774 27.8885C113.797 26.3936 115.313 25.6473 117.322 25.6473ZM114.584 33.9659C114.581 34.5219 114.843 35.0438 115.285 35.3682C115.753 35.7413 116.333 35.9413 116.929 35.9291C117.821 35.9266 118.678 35.5657 119.309 34.9243C120.01 34.2536 120.361 33.4684 120.361 32.5636C119.701 32.0295 118.781 31.7612 117.601 31.7612C116.741 31.7612 116.024 31.971 115.45 32.3929C114.872 32.8221 114.584 33.3416 114.584 33.9659ZM133.998 26.0204L126.934 42.5186H124.75L127.371 36.746L122.725 26.0204H125.024L128.382 34.2463H128.427L131.694 26.0204H133.998Z" fill="#5F6368"/>
<path d="M95.2526 29.2314C95.2526 28.5754 95.1998 27.9218 95.0894 27.2755H86.166V30.9775H91.2757C91.0645 32.1725 90.3829 33.2285 89.3869 33.8992V36.3038H92.4373C94.2229 34.6332 95.2526 32.1579 95.2526 29.2314Z" fill="#4285F4"/>
<path d="M86.1619 38.6284C88.7156 38.6284 90.866 37.7772 92.4332 36.3067L89.3828 33.9021C88.5332 34.4874 87.4411 34.8215 86.1619 34.8215C83.6947 34.8215 81.5994 33.1314 80.8506 30.8536H77.709V33.3314C79.3146 36.5798 82.5859 38.6284 86.1619 38.6284Z" fill="#34A853"/>
<path d="M80.8528 30.8535C80.4568 29.661 80.4568 28.366 80.8528 27.1734V24.6957H77.7111C76.3671 27.4124 76.3671 30.6145 77.7111 33.3313L80.8528 30.8535Z" fill="#FBBC04"/>
<path d="M86.1619 23.206C87.5107 23.1841 88.814 23.7011 89.7908 24.6473L92.4932 21.9037C90.7796 20.2698 88.5116 19.3723 86.1619 19.3991C82.5859 19.3991 79.3146 21.4501 77.709 24.6961L80.8506 27.1739C81.5994 24.8961 83.6947 23.206 86.1619 23.206Z" fill="#EA4335"/>
</g>
<defs>
<clipPath id="clip0_2846_10868">
<rect width="61.9167" height="61.9167" fill="white" transform="translate(3.69531)"/>
</clipPath>
<clipPath id="clip1_2846_10868">
<rect width="46.2065" height="46.2065" fill="white" transform="translate(82.248 53.5997)"/>
</clipPath>
<clipPath id="clip2_2846_10868">
<rect width="57.2961" height="58.2202" fill="white" transform="translate(76.7031 1.84827)"/>
</clipPath>
</defs>
</svg>
