<svg width="24" height="24" viewBox="0 0 24 24" fill="none" xmlns="http://www.w3.org/2000/svg">
<g id="arcticons:telegram">
<path id="Vector" d="M20.4148 4.23999C20.9848 4.23999 21.4148 4.73999 21.1848 5.66999L18.3948 18.82C18.1998 19.755 17.6348 19.98 16.8548 19.545L10.1998 14.63C10.174 14.6115 10.153 14.5871 10.1385 14.5588C10.124 14.5306 10.1164 14.4993 10.1164 14.4675C10.1164 14.4357 10.124 14.4044 10.1385 14.3762C10.153 14.3479 10.174 14.3235 10.1998 14.305L17.8848 7.36499C18.2348 7.05499 17.8098 6.90499 17.3498 7.18499L7.7048 13.27C7.67555 13.2891 7.64234 13.3012 7.60769 13.3056C7.57303 13.3099 7.53785 13.3063 7.5048 13.295L3.4098 12C2.4998 11.735 2.4998 11.11 3.6148 10.665L19.9998 4.34499C20.1297 4.28265 20.2708 4.24695 20.4148 4.23999Z" stroke="white" stroke-width="0.5" stroke-linecap="round" stroke-linejoin="round"/>
</g>
</svg>
