<svg width="38" height="440" viewBox="0 0 38 440" fill="none" xmlns="http://www.w3.org/2000/svg">
<line x1="18.5" y1="35" x2="18.5" y2="430" stroke="#FBFDF6" stroke-dasharray="4 4"/>
<circle cx="19" cy="19" r="19" fill="#EEC700"/>
<path d="M15.0439 26V24.58H18.3639V13.32H19.2439L15.3639 15.74V14.08L18.8239 11.9H20.0239V24.58H23.1439V26H15.0439Z" fill="#292A2A"/>
<circle cx="19" cy="133" r="19" fill="#EEC700"/>
<path d="M14.2239 140V138.76L19.2239 133.54C19.8772 132.86 20.3639 132.213 20.6839 131.6C21.0172 130.973 21.1839 130.327 21.1839 129.66C21.1839 128.847 20.9306 128.233 20.4239 127.82C19.9172 127.393 19.1839 127.18 18.2239 127.18C17.4772 127.18 16.7839 127.313 16.1439 127.58C15.5172 127.833 14.9106 128.24 14.3239 128.8L13.7239 127.5C14.2572 126.967 14.9372 126.54 15.7639 126.22C16.5906 125.887 17.4639 125.72 18.3839 125.72C19.8106 125.72 20.9106 126.053 21.6839 126.72C22.4572 127.373 22.8439 128.307 22.8439 129.52C22.8439 130.413 22.6239 131.267 22.1839 132.08C21.7572 132.88 21.1306 133.707 20.3039 134.56L15.8839 139.04V138.58H23.4439V140H14.2239Z" fill="#292A2A"/>
<circle cx="19" cy="421" r="19" fill="#EEC700"/>
<path d="M20.2239 428V424.94H13.5039V423.74L20.4839 413.9H21.8439V423.6H24.0039V424.94H21.8439V428H20.2239ZM20.2239 423.6V415.86H20.6639L14.8639 424.02V423.6H20.2239Z" fill="#292A2A"/>
<circle cx="19" cy="267" r="19" fill="#EEC700"/>
<path d="M18.4239 274.18C17.4772 274.18 16.5706 274.033 15.7039 273.74C14.8372 273.447 14.1106 273.027 13.5239 272.48L14.1439 271.2C14.7972 271.733 15.4706 272.12 16.1639 272.36C16.8572 272.6 17.6039 272.72 18.4039 272.72C19.4572 272.72 20.2572 272.5 20.8039 272.06C21.3506 271.607 21.6239 270.947 21.6239 270.08C21.6239 269.253 21.3439 268.627 20.7839 268.2C20.2239 267.76 19.4039 267.54 18.3239 267.54H16.2039V266.16H18.1839C19.1172 266.16 19.8572 265.92 20.4039 265.44C20.9506 264.96 21.2239 264.307 21.2239 263.48C21.2239 262.733 20.9706 262.167 20.4639 261.78C19.9706 261.38 19.2572 261.18 18.3239 261.18C16.8039 261.18 15.4906 261.72 14.3839 262.8L13.7639 261.5C14.3106 260.94 14.9972 260.507 15.8239 260.2C16.6506 259.88 17.5172 259.72 18.4239 259.72C19.8106 259.72 20.8972 260.04 21.6839 260.68C22.4706 261.32 22.8639 262.207 22.8639 263.34C22.8639 264.207 22.6172 264.953 22.1239 265.58C21.6306 266.193 20.9639 266.613 20.1239 266.84V266.62C21.1239 266.78 21.8972 267.18 22.4439 267.82C22.9906 268.447 23.2639 269.24 23.2639 270.2C23.2639 271.427 22.8306 272.4 21.9639 273.12C21.1106 273.827 19.9306 274.18 18.4239 274.18Z" fill="#292A2A"/>
</svg>
