<svg width="186" height="255" viewBox="0 0 186 255" fill="none" xmlns="http://www.w3.org/2000/svg">
<path id="0" d="M93.2008 254.45C63.5675 254.45 40.7008 243.367 24.6008 221.2C8.73412 198.8 0.800781 167.3 0.800781 126.7C0.800781 85.4 8.73412 54.0167 24.6008 32.55C40.7008 10.85 63.5675 0 93.2008 0C123.067 0 145.934 10.85 161.801 32.55C177.667 54.0167 185.601 85.2833 185.601 126.35C185.601 167.183 177.667 198.8 161.801 221.2C145.934 243.367 123.067 254.45 93.2008 254.45ZM93.2008 210.35C106.734 210.35 116.767 203.7 123.301 190.4C130.067 176.867 133.451 155.517 133.451 126.35C133.451 97.1833 130.067 76.1833 123.301 63.35C116.767 50.5167 106.734 44.1 93.2008 44.1C79.6675 44.1 69.5175 50.5167 62.7508 63.35C56.2174 76.1833 52.9508 97.0667 52.9508 126C52.9508 155.4 56.3341 176.867 63.1008 190.4C69.8675 203.7 79.9008 210.35 93.2008 210.35Z" fill="#0E5B1D"/>
</svg>
