<svg width="250" height="250" viewBox="0 0 250 250" fill="none" xmlns="http://www.w3.org/2000/svg">
<path d="M0 108.2C0 19.0973 19.0973 0 108.2 0H141.8C230.903 0 250 19.0973 250 108.2V141.8C250 230.903 230.903 250 141.8 250H108.2C19.0973 250 0 230.903 0 141.8V108.2Z" fill="url(#paint0_linear_2304_10590)"/>
<path d="M98.5581 20C105.601 20 112.718 20.662 119.908 21.9861C127.098 23.3102 132.821 25.2227 137.076 27.7238C138.397 28.3123 139.204 28.9743 139.497 29.7099C139.938 30.2984 140.231 31.4018 140.378 33.0201L142.799 57.7361C142.799 58.1775 142.432 58.4717 141.698 58.6188C140.965 58.6188 140.525 58.3982 140.378 57.9568C137.15 46.6286 131.133 38.3164 122.329 33.0201C113.672 27.5767 102.887 24.8549 89.974 24.8549C78.8221 24.8549 69.0641 27.356 60.7002 32.358C52.3362 37.213 45.8798 44.1276 41.331 53.1019C36.7822 62.0761 34.5078 72.448 34.5078 84.2176C34.5078 97.8997 37.2958 110.552 42.8717 122.174C48.5944 133.797 56.2247 142.992 65.7626 149.759C75.4471 156.527 85.8654 159.91 97.0173 159.91C107.582 159.91 116.753 157.042 124.53 151.304C132.307 145.419 138.25 136.445 142.359 124.381C142.359 123.94 142.652 123.719 143.239 123.719C143.679 123.719 144.046 123.793 144.34 123.94C144.78 124.087 145 124.308 145 124.602L141.919 149.539C141.625 151.304 141.258 152.481 140.818 153.069C140.525 153.511 139.718 154.026 138.397 154.614C125.191 160.205 111.251 163 96.5771 163C78.9688 163 64.2218 159.469 52.3362 152.407C40.5973 145.199 31.9399 136.077 26.364 125.043C20.788 114.009 18 102.387 18 90.1759C18 76.6409 21.7418 64.5036 29.2253 53.7639C36.7088 43.0242 46.6135 34.7119 58.9393 28.8272C71.2652 22.9424 84.4714 20 98.5581 20Z" fill="white"/>
<path d="M151.442 230C144.399 230 137.282 229.338 130.092 228.014C122.902 226.69 117.179 224.777 112.924 222.276C111.603 221.688 110.796 221.026 110.503 220.29C110.062 219.702 109.769 218.598 109.622 216.98L107.201 192.264C107.201 191.823 107.568 191.528 108.302 191.381C109.035 191.381 109.475 191.602 109.622 192.043C112.85 203.371 118.867 211.684 127.671 216.98C136.328 222.423 147.113 225.145 160.026 225.145C171.178 225.145 180.936 222.644 189.3 217.642C197.664 212.787 204.12 205.872 208.669 196.898C213.218 187.924 215.492 177.552 215.492 165.782C215.492 152.1 212.704 139.448 207.128 127.826C201.406 116.203 193.775 107.008 184.237 100.241C174.553 93.4732 164.135 90.0895 152.983 90.0895C142.418 90.0895 133.247 92.9583 125.47 98.696C117.693 104.581 111.75 113.555 107.641 125.619C107.641 126.06 107.348 126.281 106.761 126.281C106.321 126.281 105.954 126.207 105.66 126.06C105.22 125.913 105 125.692 105 125.398L108.081 100.461C108.375 98.696 108.742 97.519 109.182 96.9305C109.475 96.4892 110.282 95.9743 111.603 95.3858C124.809 89.7953 138.749 87 153.423 87C171.031 87 185.778 90.5309 197.664 97.5926C209.403 104.801 218.06 113.923 223.636 124.957C229.212 135.991 232 147.613 232 159.824C232 173.359 228.258 185.496 220.775 196.236C213.291 206.976 203.386 215.288 191.061 221.173C178.735 227.058 165.529 230 151.442 230Z" fill="white"/>
<defs>
<linearGradient id="paint0_linear_2304_10590" x1="5.00001" y1="4.49999" x2="192" y2="211" gradientUnits="userSpaceOnUse">
<stop stop-color="#0E5B1D"/>
<stop offset="1" stop-color="#87B924"/>
</linearGradient>
</defs>
</svg>
