<svg width="44" height="44" viewBox="0 0 44 44" fill="none" xmlns="http://www.w3.org/2000/svg">
<rect width="44" height="44" fill="#146817"/>
<path fill-rule="evenodd" clip-rule="evenodd" d="M9.39921 16.783C8.76604 16.783 8.19914 16.9081 7.6985 17.1585C7.21258 17.4088 6.80028 17.7695 6.46161 18.2407C6.12294 18.6972 5.86526 19.2568 5.68856 19.9194C5.52659 20.582 5.4456 21.3256 5.4456 22.1502C5.4456 23.2693 5.57813 24.2264 5.84317 25.0215C6.12294 25.8019 6.55732 26.3983 7.14632 26.8106C7.73531 27.2229 8.48627 27.429 9.39921 27.429C10.0471 27.429 10.6876 27.3554 11.3208 27.2081C11.9687 27.0609 12.6681 26.8547 13.4191 26.5897V29.3948C12.727 29.6745 12.0423 29.8807 11.365 30.0132C10.6876 30.1457 9.9293 30.212 9.08999 30.212C7.47026 30.212 6.13031 29.8807 5.07012 29.2181C4.02466 28.5407 3.25161 27.5984 2.75096 26.3909C2.25032 25.1688 2 23.7478 2 22.1281C2 20.9354 2.16197 19.8457 2.48592 18.8592C2.80986 17.8579 3.28106 16.9965 3.8995 16.275C4.53267 15.5535 5.30572 14.9939 6.21865 14.5964C7.14632 14.1988 8.2065 14 9.39921 14C10.1796 14 10.96 14.1031 11.7405 14.3092C12.5356 14.5006 13.2939 14.7657 14.0154 15.1044L12.9332 17.8211C12.3442 17.5413 11.7478 17.2984 11.1441 17.0922C10.5551 16.8861 9.97348 16.783 9.39921 16.783Z" fill="white"/>
<path fill-rule="evenodd" clip-rule="evenodd" d="M26.2401 29.4246L24.7441 27.9482C23.4711 29.0899 21.916 29.6608 20.0787 29.6608C19.0682 29.6608 18.1758 29.4902 17.4016 29.149C16.6404 28.7947 16.0499 28.3025 15.6299 27.6726C15.21 27.0296 15 26.2881 15 25.4482C15 24.5427 15.2559 23.7291 15.7677 23.0073C16.2795 22.2855 17.0341 21.7015 18.0315 21.2553C17.6772 20.8222 17.4213 20.4089 17.2638 20.0152C17.1063 19.6083 17.0276 19.1753 17.0276 18.716C17.0276 18.086 17.1916 17.5217 17.5197 17.023C17.8478 16.5112 18.3136 16.111 18.9173 15.8223C19.5341 15.5335 20.2493 15.3892 21.063 15.3892C21.8898 15.3892 22.5984 15.5467 23.189 15.8616C23.7795 16.1766 24.2191 16.5965 24.5078 17.1215C24.7966 17.6464 24.9212 18.2304 24.8819 18.8734H22.2047C22.2178 18.4404 22.1128 18.1123 21.8897 17.8892C21.6667 17.653 21.3648 17.5349 20.9842 17.5349C20.6168 17.5349 20.3084 17.6464 20.059 17.8695C19.8228 18.0795 19.7047 18.3551 19.7047 18.6963C19.7047 19.0244 19.8031 19.3524 20 19.6805C20.1968 19.9955 20.5184 20.3892 20.9646 20.8616L24.4291 24.2868C24.4554 24.2606 24.475 24.2343 24.4882 24.2081L24.5275 24.1293L25.6496 22.2593H28.5236L27.1456 24.6805C26.8832 25.1923 26.601 25.6779 26.2992 26.1372L29.6259 29.4246H26.2401ZM20.1575 27.3774C21.2336 27.3774 22.185 26.9968 23.0118 26.2356L19.626 22.8892C18.353 23.4535 17.7165 24.254 17.7165 25.2907C17.7165 25.8813 17.9396 26.38 18.3858 26.7868C18.832 27.1805 19.4226 27.3774 20.1575 27.3774Z" fill="white"/>
<path fill-rule="evenodd" clip-rule="evenodd" d="M35.6985 17.1585C36.1991 16.9082 36.766 16.783 37.3992 16.783C37.9735 16.783 38.5551 16.8861 39.1441 17.0922C39.7478 17.2984 40.3442 17.5413 40.9332 17.8211L42.0154 15.1044C41.2939 14.7657 40.5356 14.5006 39.7405 14.3092C38.96 14.1031 38.1796 14 37.3992 14C36.2065 14 35.1463 14.1988 34.2187 14.5964C33.3057 14.9939 32.5327 15.5535 31.8995 16.275C31.2811 16.9965 30.8099 17.8579 30.4859 18.8592C30.162 19.8457 30 20.9354 30 22.1281C30 23.7478 30.2503 25.1688 30.751 26.3909C31.2516 27.5984 32.0247 28.5407 33.0701 29.2181C34.1303 29.8807 35.4703 30.212 37.09 30.212C37.9293 30.212 38.6876 30.1457 39.365 30.0132C40.0423 29.8807 40.727 29.6746 41.4191 29.3948V26.5897C40.6681 26.8548 39.9687 27.0609 39.3208 27.2081C38.6876 27.3554 38.0471 27.429 37.3992 27.429C36.4863 27.429 35.7353 27.2229 35.1463 26.8106C34.5573 26.3983 34.123 25.8019 33.8432 25.0215C33.5781 24.2264 33.4456 23.2693 33.4456 22.1502C33.4456 21.3256 33.5266 20.582 33.6886 19.9194C33.8653 19.2568 34.1229 18.6972 34.4616 18.2407C34.8003 17.7696 35.2126 17.4088 35.6985 17.1585Z" fill="white"/>
</svg>
