<svg width="24" height="20" viewBox="0 0 24 20" fill="none" xmlns="http://www.w3.org/2000/svg">
<g clip-path="url(#clip0_119_28978)">
<path d="M13.5764 9.98309L15.9152 12.6871L19.0604 14.7198L19.6075 10.0002L19.0604 5.38698L15.855 7.17267L13.5764 9.98309Z" fill="#00832D"/>
<path d="M0.00479889 14.2805V18.3023C0.00479889 19.2206 0.741758 19.9662 1.64984 19.9662H5.62608L6.44944 16.9275L5.62608 14.2805L2.89809 13.4477L0.0048926 14.2805H0.00479889Z" fill="#0066DA"/>
<path d="M5.62608 -3.05176e-05L0.00479889 5.68566L2.89828 6.51646L5.62608 5.68566L6.43444 3.07476L5.62608 -3.05176e-05Z" fill="#E94235"/>
<path d="M0.00489044 14.2823H5.62607V5.68556H0.00489044V14.2823Z" fill="#2684FC"/>
<path d="M22.6513 2.40737L19.0603 5.38708V14.7198L22.6661 17.7111C23.2059 18.1387 23.9955 17.749 23.9955 17.0549V3.05021C23.9955 2.3485 23.1871 1.96064 22.6512 2.40746" fill="#00AC47"/>
<path d="M13.5764 9.98309V14.2805H5.62602V19.9662H17.4155C18.3236 19.9662 19.0604 19.2206 19.0604 18.3023V14.7198L13.5764 9.98309Z" fill="#00AC47"/>
<path d="M17.4155 -3.05176e-05H5.62602V5.68566H13.5764V9.9831L19.0605 5.38689V1.66395C19.0605 0.745467 18.3236 6.42692e-05 17.4155 6.42692e-05" fill="#FFBA00"/>
</g>
<defs>
<clipPath id="clip0_119_28978">
<rect width="24" height="20" fill="white"/>
</clipPath>
</defs>
</svg>
