<svg width="20" height="20" viewBox="0 0 20 20" fill="none" xmlns="http://www.w3.org/2000/svg">
<g clip-path="url(#clip0_119_28986)">
<path d="M19.2705 11.2427C19.3288 10.8343 19.3589 10.4223 19.3606 10.0097C19.3606 7.52607 18.374 5.14415 16.6177 3.38795C14.8615 1.63174 12.4796 0.64512 9.99594 0.64512C9.58344 0.646839 9.17149 0.676917 8.76305 0.73512C6.45469 -0.508942 3.60352 -0.0910517 1.74938 1.76325C-0.104841 3.61739 -0.522732 6.46848 0.721331 8.77684C0.663128 9.18528 0.633049 9.59715 0.631253 10.0097C0.631253 15.1818 4.82399 19.3744 9.99594 19.3744C10.4084 19.3727 10.8205 19.3426 11.2289 19.2844C13.5372 20.5285 16.3883 20.1106 18.2426 18.2563C20.0967 16.4022 20.5147 13.551 19.2705 11.2427Z" fill="white"/>
<path d="M5.93703 11.88C9.2116 11.88 11.8662 9.2254 11.8662 5.95082C11.8662 2.67625 9.2116 0.0216827 5.93703 0.0216827C2.66246 0.0216827 0.00788879 2.67625 0.00788879 5.95082C0.00788879 9.2254 2.66246 11.88 5.93703 11.88Z" fill="url(#paint0_linear_119_28986)"/>
<path d="M14.0549 19.9979C17.3295 19.9979 19.9841 17.3433 19.9841 14.0687C19.9841 10.7941 17.3295 8.13957 14.0549 8.13957C10.7803 8.13957 8.12578 10.7941 8.12578 14.0687C8.12578 17.3433 10.7803 19.9979 14.0549 19.9979Z" fill="url(#paint1_linear_119_28986)"/>
<mask id="mask0_119_28986" style="mask-type:luminance" maskUnits="userSpaceOnUse" x="0" y="0" width="20" height="20">
<path d="M14.0549 8.13959C12.9949 8.13939 11.9542 8.42406 11.0419 8.96381C12.5681 6.39038 11.9402 3.08311 9.57711 1.24788C7.21407 -0.587515 3.85446 -0.377125 1.73867 1.73866C-0.377028 3.85436 -0.587419 7.21405 1.24789 9.57709C3.08313 11.9402 6.39032 12.568 8.96391 11.0419C7.5975 13.3576 7.96055 16.3031 9.84844 18.2178C11.7364 20.1325 14.6764 20.5369 17.0113 19.2032C19.3461 17.8695 20.4911 15.1315 19.8007 12.5327C19.1104 9.93389 16.7577 8.12506 14.0687 8.12577L14.0549 8.13959V8.13959Z" fill="url(#paint2_radial_119_28986)"/>
</mask>
<g mask="url(#mask0_119_28986)">
<path d="M9.80836 21.5148C15.9272 21.5148 20.8874 16.5545 20.8874 10.4358C20.8874 4.31695 15.9272 -0.643311 9.80836 -0.643311C3.68956 -0.643311 -1.27071 4.31695 -1.27071 10.4358C-1.27071 16.5545 3.68956 21.5148 9.80836 21.5148Z" fill="url(#paint3_radial_119_28986)"/>
</g>
<path d="M9.99594 19.3744C15.1679 19.3744 19.3606 15.1817 19.3606 10.0097C19.3606 4.83776 15.1679 0.64505 9.99594 0.64505C4.82396 0.64505 0.631248 4.83776 0.631248 10.0097C0.631248 15.1817 4.82396 19.3744 9.99594 19.3744Z" fill="url(#paint4_linear_119_28986)"/>
<path d="M9.99594 19.3744C15.1679 19.3744 19.3606 15.1817 19.3606 10.0097C19.3606 4.83776 15.1679 0.64505 9.99594 0.64505C4.82396 0.64505 0.631248 4.83776 0.631248 10.0097C0.631248 15.1817 4.82396 19.3744 9.99594 19.3744Z" fill="url(#paint5_linear_119_28986)"/>
<path d="M6.58117 8.85997C6.36093 8.447 6.25119 7.98411 6.26258 7.51622C6.24842 6.92485 6.45035 6.34861 6.83054 5.89544C7.23056 5.44411 7.74151 5.10506 8.31281 4.91184C8.93342 4.69286 9.5872 4.58272 10.2453 4.5863C10.6767 4.58329 11.1075 4.61571 11.5336 4.68325C11.8374 4.73416 12.1363 4.81063 12.4272 4.91184C12.6914 5.00309 12.9292 5.15767 13.1198 5.36208C13.2654 5.52608 13.3444 5.73853 13.3415 5.95778C13.3468 6.07273 13.3294 6.18759 13.2901 6.29577C13.2509 6.40394 13.1907 6.50329 13.1129 6.58809C13.0403 6.66534 12.9521 6.72628 12.8542 6.76688C12.7563 6.80747 12.6509 6.8268 12.5449 6.82356C12.3966 6.82126 12.2504 6.78825 12.1155 6.72661C11.7892 6.58208 11.4537 6.45941 11.1111 6.35942C10.7924 6.27607 10.4639 6.23649 10.1345 6.24177C9.70766 6.22743 9.28532 6.33298 8.91539 6.54645C8.7597 6.64106 8.63247 6.77597 8.54713 6.93691C8.46178 7.09786 8.42151 7.27888 8.43055 7.46083C8.42806 7.6975 8.51745 7.9259 8.67992 8.09802C8.87868 8.30305 9.11347 8.46976 9.37258 8.58981C9.65656 8.72833 10.0652 8.91536 10.647 9.15091L10.8271 9.22013C11.3766 9.42952 11.9034 9.69407 12.3995 10.0097C12.7947 10.2659 13.1283 10.6066 13.3761 11.0072C13.6197 11.4274 13.742 11.9069 13.7294 12.3925C13.749 12.9873 13.5765 13.5726 13.2376 14.0618C12.8898 14.5323 12.4064 14.8852 11.8523 15.0731C11.1969 15.3068 10.5045 15.4194 9.8089 15.4055C8.8578 15.4371 7.91153 15.2573 7.03828 14.8791C6.81458 14.7784 6.61767 14.6266 6.46344 14.4358C6.34205 14.2561 6.27916 14.0432 6.28336 13.8263C6.27576 13.712 6.29356 13.5975 6.33548 13.4909C6.37739 13.3843 6.44238 13.2884 6.52578 13.2099C6.69893 13.0566 6.92511 12.977 7.15609 12.9882C7.41433 12.9919 7.66813 13.0559 7.89719 13.1752C8.18117 13.3137 8.40281 13.4246 8.58984 13.4938C8.77526 13.5721 8.96779 13.6324 9.16476 13.6739C9.40783 13.7292 9.6567 13.7548 9.90594 13.7501C10.3471 13.7826 10.7863 13.6655 11.1527 13.4176C11.291 13.3117 11.4017 13.1738 11.4753 13.0158C11.5489 12.8578 11.5831 12.6844 11.5752 12.5103C11.5818 12.2538 11.4873 12.005 11.312 11.8176C11.0861 11.5873 10.824 11.3954 10.5362 11.2497C10.1968 11.0695 9.71195 10.8548 9.09554 10.5916C8.54165 10.371 8.01042 10.0973 7.5093 9.77427C7.13461 9.52505 6.80797 9.24872 6.58117 8.85997Z" fill="white"/>
</g>
<defs>
<linearGradient id="paint0_linear_119_28986" x1="500.107" y1="6.94693" x2="685.737" y2="1178.92" gradientUnits="userSpaceOnUse">
<stop offset="0.01" stop-color="#00B7F0"/>
<stop offset="0.34" stop-color="#009DE5"/>
<stop offset="0.76" stop-color="#0082D9"/>
<stop offset="1" stop-color="#0078D4"/>
</linearGradient>
<linearGradient id="paint1_linear_119_28986" x1="87.0901" y1="897.511" x2="1114.99" y2="304.597" gradientUnits="userSpaceOnUse">
<stop stop-color="#0078D4"/>
<stop offset="0.37" stop-color="#007AD5"/>
<stop offset="0.57" stop-color="#0082D9"/>
<stop offset="0.74" stop-color="#0090DF"/>
<stop offset="0.88" stop-color="#00A3E7"/>
<stop offset="1" stop-color="#00BCF2"/>
</linearGradient>
<radialGradient id="paint2_radial_119_28986" cx="0" cy="0" r="1" gradientUnits="userSpaceOnUse" gradientTransform="translate(970.78 999.21) scale(1000.42 999.63)">
<stop/>
<stop offset="1" stop-opacity="0"/>
</radialGradient>
<radialGradient id="paint3_radial_119_28986" cx="0" cy="0" r="1" gradientUnits="userSpaceOnUse" gradientTransform="translate(1074.26 1107.26) scale(1108.37)">
<stop/>
<stop offset="1" stop-opacity="0"/>
</radialGradient>
<linearGradient id="paint4_linear_119_28986" x1="570.678" y1="302.637" x2="1507.15" y2="1924.84" gradientUnits="userSpaceOnUse">
<stop stop-color="#00B7F0"/>
<stop offset="1" stop-color="#007CC1"/>
</linearGradient>
<linearGradient id="paint5_linear_119_28986" x1="855.365" y1="1870.12" x2="1018.83" y2="4.11002" gradientUnits="userSpaceOnUse">
<stop stop-color="#0078D4"/>
<stop offset="1" stop-color="#00BCF2"/>
</linearGradient>
<clipPath id="clip0_119_28986">
<rect width="20" height="20" fill="white"/>
</clipPath>
</defs>
</svg>
